<svg xmlns="http://www.w3.org/2000/svg" xmlns:xlink="http://www.w3.org/1999/xlink" contentStyleType="text/css" data-diagram-type="ACTIVITY" height="339px" preserveAspectRatio="none" style="width:421px;height:339px;background:#FFFFFF;" version="1.1" viewBox="0 0 421 339" width="421px" zoomAndPan="magnify"><title>Exemple d'une fonction en JavaScript</title><defs/><g><text fill="#000000" font-family="sans-serif" font-size="14" font-weight="bold" lengthAdjust="spacing" textLength="294.7656" x="61.8079" y="32.9951">Exemple d'une fonction en JavaScript</text><ellipse cx="98.5547" cy="57.2969" fill="#222222" rx="10" ry="10" style="stroke:#222222;stroke-width:1;"/><path d="M206.1094,84.1484 L206.1094,100.2813 L186.1094,104.2813 L206.1094,108.2813 L206.1094,124.4141 A0,0 0 0 0 206.1094,124.4141 L382.0078,124.4141 A0,0 0 0 0 382.0078,124.4141 L382.0078,94.1484 L372.0078,84.1484 L206.1094,84.1484 A0,0 0 0 0 206.1094,84.1484" fill="#FEFFDD" style="stroke:#181818;stroke-width:0.5;"/><path d="M372.0078,84.1484 L372.0078,94.1484 L382.0078,94.1484 L372.0078,84.1484" fill="#FEFFDD" style="stroke:#181818;stroke-width:0.5;"/><ellipse cx="225.3154" cy="96.7813" fill="#000000" rx="2.5" ry="2.5"/><text fill="#000000" font-family="sans-serif" font-size="13" lengthAdjust="spacing" textLength="50.8003" x="231.8154" y="101.2153">Premier</text><text fill="#000000" font-family="sans-serif" font-size="13" lengthAdjust="spacing" textLength="4.1323" x="282.6157" y="101.2153">&#160;</text><text fill="#000000" font-family="sans-serif" font-size="13" lengthAdjust="spacing" textLength="50.4512" x="286.748" y="101.2153">nombre</text><text fill="#000000" font-family="sans-serif" font-size="13" lengthAdjust="spacing" textLength="4.1323" x="337.1992" y="101.2153">&#160;</text><text fill="#000000" font-family="sans-serif" font-size="13" lengthAdjust="spacing" textLength="5.0718" x="341.3315" y="101.2153">(</text><text fill="#000000" font-family="monospace" font-size="13" lengthAdjust="spacing" textLength="7.8267" x="346.4033" y="101.2153">a</text><text fill="#000000" font-family="sans-serif" font-size="13" lengthAdjust="spacing" textLength="5.0718" x="354.23" y="101.2153">)</text><ellipse cx="217.6094" cy="111.9141" fill="#000000" rx="2.5" ry="2.5"/><text fill="#000000" font-family="sans-serif" font-size="13" lengthAdjust="spacing" textLength="66.2124" x="224.1094" y="116.3481">Deuxi&#232;me</text><text fill="#000000" font-family="sans-serif" font-size="13" lengthAdjust="spacing" textLength="4.1323" x="290.3218" y="116.3481">&#160;</text><text fill="#000000" font-family="sans-serif" font-size="13" lengthAdjust="spacing" textLength="50.4512" x="294.4541" y="116.3481">nombre</text><text fill="#000000" font-family="sans-serif" font-size="13" lengthAdjust="spacing" textLength="4.1323" x="344.9053" y="116.3481">&#160;</text><text fill="#000000" font-family="sans-serif" font-size="13" lengthAdjust="spacing" textLength="5.0718" x="349.0376" y="116.3481">(</text><text fill="#000000" font-family="monospace" font-size="13" lengthAdjust="spacing" textLength="7.8267" x="354.1094" y="116.3481">b</text><text fill="#000000" font-family="sans-serif" font-size="13" lengthAdjust="spacing" textLength="5.0718" x="361.936" y="116.3481">)</text><rect fill="#F1F1F1" height="33.9688" rx="12.5" ry="12.5" style="stroke:#181818;stroke-width:0.5;" width="175.1094" x="11" y="87.2969"/><text fill="#000000" font-family="sans-serif" font-size="12" lengthAdjust="spacing" textLength="69.2227" x="21" y="108.4355">Param&#232;tres</text><text fill="#000000" font-family="sans-serif" font-size="12" lengthAdjust="spacing" textLength="3.8145" x="90.2227" y="108.4355">&#160;</text><text fill="#000000" font-family="sans-serif" font-size="12" lengthAdjust="spacing" textLength="15" x="94.0371" y="108.4355">de</text><text fill="#000000" font-family="sans-serif" font-size="12" lengthAdjust="spacing" textLength="3.8145" x="109.0371" y="108.4355">&#160;</text><text fill="#000000" font-family="sans-serif" font-size="12" lengthAdjust="spacing" textLength="10.6875" x="112.8516" y="108.4355">la</text><text fill="#000000" font-family="sans-serif" font-size="12" lengthAdjust="spacing" textLength="3.8145" x="123.5391" y="108.4355">&#160;</text><text fill="#000000" font-family="sans-serif" font-size="12" lengthAdjust="spacing" textLength="48.7559" x="127.3535" y="108.4355">fonction</text><rect fill="#F1F1F1" height="33.9688" rx="12.5" ry="12.5" style="stroke:#181818;stroke-width:0.5;" width="173.3164" x="11.8965" y="144.4141"/><text fill="#000000" font-family="sans-serif" font-size="12" lengthAdjust="spacing" textLength="48.3574" x="21.8965" y="165.5527">Ex&#233;cute</text><text fill="#000000" font-family="sans-serif" font-size="12" lengthAdjust="spacing" textLength="3.8145" x="70.2539" y="165.5527">&#160;</text><text fill="#000000" font-family="monospace" font-size="12" lengthAdjust="spacing" textLength="79.4707" x="74.0684" y="165.5527">addition(a,</text><text fill="#000000" font-family="monospace" font-size="12" lengthAdjust="spacing" textLength="7.2246" x="153.5391" y="165.5527">&#160;</text><text fill="#000000" font-family="monospace" font-size="12" lengthAdjust="spacing" textLength="14.4492" x="160.7637" y="165.5527">b)</text><path d="M203.0273,202.8008 L203.0273,211.3672 L183.0273,215.3672 L203.0273,219.3672 L203.0273,227.9336 A0,0 0 0 0 203.0273,227.9336 L409.3815,227.9336 A0,0 0 0 0 409.3815,227.9336 L409.3815,212.8008 L399.3815,202.8008 L203.0273,202.8008 A0,0 0 0 0 203.0273,202.8008" fill="#FEFFDD" style="stroke:#181818;stroke-width:0.5;"/><path d="M399.3815,202.8008 L399.3815,212.8008 L409.3815,212.8008 L399.3815,202.8008" fill="#FEFFDD" style="stroke:#181818;stroke-width:0.5;"/><path d="M213.3748,211.0169 C213.3098,211.0169 213.2665,211.0603 213.234,211.1144 L210.049,218.4919 C210.0273,218.5461 210.0165,218.6328 210.0165,218.6978 L210.0165,219.5753 C210.0165,219.6294 210.0598,219.6728 210.114,219.6728 L217.4915,219.6728 C217.5457,219.6728 217.589,219.6294 217.589,219.5753 L217.589,218.6978 C217.589,218.6436 217.5782,218.5461 217.5565,218.4919 L214.3715,211.1144 C214.3498,211.0603 214.2957,211.0169 214.2307,211.0169 L213.3532,211.0169 M213.2773,214.2669 L214.3607,214.2669 L214.3607,216.4336 L213.2773,216.4336 L213.2773,214.2669 M213.2773,217.5169 L214.3607,217.5169 L214.3607,218.6003 L213.2773,218.6003 L213.2773,217.5169" fill="#000000"/><text fill="#000000" font-family="sans-serif" font-size="13" lengthAdjust="spacing" textLength="4.1323" x="219.694" y="219.8677">&#160;</text><text fill="#000000" font-family="sans-serif" font-size="13" lengthAdjust="spacing" textLength="44.8652" x="223.8263" y="219.8677">Erreur:</text><text fill="#000000" font-family="sans-serif" font-size="13" lengthAdjust="spacing" textLength="4.1323" x="268.6916" y="219.8677">&#160;</text><text fill="#000000" font-family="sans-serif" font-size="13" lengthAdjust="spacing" textLength="47.7217" x="272.8239" y="219.8677">Devrait</text><text fill="#000000" font-family="sans-serif" font-size="13" lengthAdjust="spacing" textLength="4.1323" x="320.5456" y="219.8677">&#160;</text><text fill="#000000" font-family="sans-serif" font-size="13" lengthAdjust="spacing" textLength="26.438" x="324.6779" y="219.8677">&#234;tre</text><text fill="#000000" font-family="sans-serif" font-size="13" lengthAdjust="spacing" textLength="4.1323" x="351.1159" y="219.8677">&#160;</text><text fill="#000000" font-family="monospace" font-size="13" lengthAdjust="spacing" textLength="7.8267" x="355.2482" y="219.8677">a</text><text fill="#000000" font-family="monospace" font-size="13" lengthAdjust="spacing" textLength="7.8267" x="363.0749" y="219.8677">&#160;</text><text fill="#000000" font-family="monospace" font-size="13" lengthAdjust="spacing" textLength="7.8267" x="370.9015" y="219.8677">+</text><text fill="#000000" font-family="monospace" font-size="13" lengthAdjust="spacing" textLength="7.8267" x="378.7282" y="219.8677">&#160;</text><text fill="#000000" font-family="monospace" font-size="13" lengthAdjust="spacing" textLength="7.8267" x="386.5549" y="219.8677">b</text><rect fill="#F1F1F1" height="33.9688" rx="12.5" ry="12.5" style="stroke:#181818;stroke-width:0.5;" width="168.9453" x="14.082" y="198.3828"/><text fill="#000000" font-family="sans-serif" font-size="12" lengthAdjust="spacing" textLength="43.9863" x="24.082" y="219.5215">Calcule</text><text fill="#000000" font-family="sans-serif" font-size="12" lengthAdjust="spacing" textLength="3.8145" x="68.0684" y="219.5215">&#160;</text><text fill="#000000" font-family="monospace" font-size="12" lengthAdjust="spacing" textLength="43.3477" x="71.8828" y="219.5215">result</text><text fill="#000000" font-family="monospace" font-size="12" lengthAdjust="spacing" textLength="7.2246" x="115.2305" y="219.5215">&#160;</text><text fill="#000000" font-family="monospace" font-size="12" lengthAdjust="spacing" textLength="7.2246" x="122.4551" y="219.5215">=</text><text fill="#000000" font-family="monospace" font-size="12" lengthAdjust="spacing" textLength="7.2246" x="129.6797" y="219.5215">&#160;</text><text fill="#000000" font-family="monospace" font-size="12" lengthAdjust="spacing" textLength="7.2246" x="136.9043" y="219.5215">a</text><text fill="#000000" font-family="monospace" font-size="12" lengthAdjust="spacing" textLength="7.2246" x="144.1289" y="219.5215">&#160;</text><text fill="#000000" font-family="monospace" font-size="12" lengthAdjust="spacing" textLength="7.2246" x="151.3535" y="219.5215">-</text><text fill="#000000" font-family="monospace" font-size="12" lengthAdjust="spacing" textLength="7.2246" x="158.5781" y="219.5215">&#160;</text><text fill="#000000" font-family="monospace" font-size="12" lengthAdjust="spacing" textLength="7.2246" x="165.8027" y="219.5215">b</text><rect fill="#F1F1F1" height="33.9688" rx="12.5" ry="12.5" style="stroke:#181818;stroke-width:0.5;" width="122.457" x="37.3262" y="252.3516"/><text fill="#000000" font-family="sans-serif" font-size="12" lengthAdjust="spacing" textLength="55.2949" x="47.3262" y="273.4902">Retourne</text><text fill="#000000" font-family="sans-serif" font-size="12" lengthAdjust="spacing" textLength="3.8145" x="102.6211" y="273.4902">&#160;</text><text fill="#000000" font-family="monospace" font-size="12" lengthAdjust="spacing" textLength="43.3477" x="106.4355" y="273.4902">result</text><ellipse cx="98.5547" cy="317.3203" fill="none" rx="11" ry="11" style="stroke:#222222;stroke-width:1;"/><ellipse cx="98.5547" cy="317.3203" fill="#222222" rx="6" ry="6" style="stroke:#222222;stroke-width:1;"/><line style="stroke:#181818;stroke-width:1;" x1="98.5547" x2="98.5547" y1="67.2969" y2="87.2969"/><polygon fill="#181818" points="94.5547,77.2969,98.5547,87.2969,102.5547,77.2969,98.5547,81.2969" style="stroke:#181818;stroke-width:1;"/><line style="stroke:#181818;stroke-width:1;" x1="98.5547" x2="98.5547" y1="121.2656" y2="144.4141"/><polygon fill="#181818" points="94.5547,134.4141,98.5547,144.4141,102.5547,134.4141,98.5547,138.4141" style="stroke:#181818;stroke-width:1;"/><line style="stroke:#181818;stroke-width:1;" x1="98.5547" x2="98.5547" y1="178.3828" y2="198.3828"/><polygon fill="#181818" points="94.5547,188.3828,98.5547,198.3828,102.5547,188.3828,98.5547,192.3828" style="stroke:#181818;stroke-width:1;"/><line style="stroke:#181818;stroke-width:1;" x1="98.5547" x2="98.5547" y1="232.3516" y2="252.3516"/><polygon fill="#181818" points="94.5547,242.3516,98.5547,252.3516,102.5547,242.3516,98.5547,246.3516" style="stroke:#181818;stroke-width:1;"/><line style="stroke:#181818;stroke-width:1;" x1="98.5547" x2="98.5547" y1="286.3203" y2="306.3203"/><polygon fill="#181818" points="94.5547,296.3203,98.5547,306.3203,102.5547,296.3203,98.5547,300.3203" style="stroke:#181818;stroke-width:1;"/><!--SRC=[LP3TIWCn48NlynH3BhJ-GLMygJyWsXj1A5RmUdOpReERx3gPj8jFL7sDVJ6JHUhs9WJEdFFDcV1XVOkC3egcMw0nrbTmFfsgi1CSTiyK0bQqj5y4btkYRuHUgPFxsbRUaHSeqqCy6Wdq6ScNz1SoJ8AnJANOney6DupjcpMoWekhgL9YfIRGyuvScpxcC7g2zyOFDY0FJxZ6PScs5QrK46HHQhR8KVrMc08OWXftbckbyhR0jbg90ZY61PEpnAc4AvXWeZLgVJH8ZnGxssyTZSGYY-JDK3gXvbt_NSQKc7pfS9anmLCeZhHEhDa3rcNC3NJQ9TO2ju1m1iMWxcroSx11zkdoTp1dfiYpn5ypMe7-9pN903Z9pZ7-XQI9xFy1Gt2Gflq5]--></g></svg>